<svg viewBox="0 0 640 640" width="640" height="640" x="0" y="0" xmlns="http://www.w3.org/2000/svg"><defs><pattern id="pattern" x="0" y="0" width="8" height="8" patternUnits="userSpaceOnUse"><polygon points="0,4 0,8 8,0 4,0" fill="#ffffff"></polygon><polygon points="4,8 8,8 8,4" fill="#ffffff"></polygon></pattern><mask id="grating" x="0" y="0" width="1" height="1"><rect x="0" y="0" width="100%" height="100%" fill="url(#pattern)"></rect></mask></defs><g id="horizStripes"><rect fill="#005020" height="16" width="100%" x="0" y="0"></rect><rect fill="#101010" height="16" width="100%" x="0" y="16"></rect><rect fill="#005020" height="96" width="100%" x="0" y="32"></rect><rect fill="#101010" height="16" width="100%" x="0" y="128"></rect><rect fill="#005020" height="96" width="100%" x="0" y="144"></rect><rect fill="#101010" height="16" width="100%" x="0" y="240"></rect><rect fill="#005020" height="16" width="100%" x="0" y="256"></rect><rect fill="#101010" height="64" width="100%" x="0" y="272"></rect><rect fill="#E0E0E0" height="16" width="100%" x="0" y="336"></rect><rect fill="#101010" height="64" width="100%" x="0" y="352"></rect><rect fill="#005020" height="16" width="100%" x="0" y="416"></rect><rect fill="#101010" height="64" width="100%" x="0" y="432"></rect><rect fill="#E8C000" height="16" width="100%" x="0" y="496"></rect><rect fill="#101010" height="128" width="100%" x="0" y="512"></rect></g><g id="vertStripes" mask="url(#grating)"><rect fill="#005020" height="100%" width="16" x="0" y="0"></rect><rect fill="#101010" height="100%" width="16" x="16" y="0"></rect><rect fill="#005020" height="100%" width="96" x="32" y="0"></rect><rect fill="#101010" height="100%" width="16" x="128" y="0"></rect><rect fill="#005020" height="100%" width="96" x="144" y="0"></rect><rect fill="#101010" height="100%" width="16" x="240" y="0"></rect><rect fill="#005020" height="100%" width="16" x="256" y="0"></rect><rect fill="#101010" height="100%" width="64" x="272" y="0"></rect><rect fill="#E0E0E0" height="100%" width="16" x="336" y="0"></rect><rect fill="#101010" height="100%" width="64" x="352" y="0"></rect><rect fill="#005020" height="100%" width="16" x="416" y="0"></rect><rect fill="#101010" height="100%" width="64" x="432" y="0"></rect><rect fill="#E8C000" height="100%" width="16" x="496" y="0"></rect><rect fill="#101010" height="100%" width="128" x="512" y="0"></rect></g></svg>