<svg viewBox="0 0 1208 1208" width="1208" height="1208" x="0" y="0" xmlns="http://www.w3.org/2000/svg"><defs><pattern id="pattern" x="0" y="0" width="8" height="8" patternUnits="userSpaceOnUse"><polygon points="0,4 0,8 8,0 4,0" fill="#ffffff"></polygon><polygon points="4,8 8,8 8,4" fill="#ffffff"></polygon></pattern><mask id="grating" x="0" y="0" width="1" height="1"><rect x="0" y="0" width="100%" height="100%" fill="url(#pattern)"></rect></mask></defs><g id="horizStripes"><rect fill="#C80000" height="32" width="100%" x="0" y="0"></rect><rect fill="#00643C" height="32" width="100%" x="0" y="32"></rect><rect fill="#101010" height="16" width="100%" x="0" y="64"></rect><rect fill="#00643C" height="248" width="100%" x="0" y="80"></rect><rect fill="#101010" height="80" width="100%" x="0" y="328"></rect><rect fill="#FCCC00" height="24" width="100%" x="0" y="408"></rect><rect fill="#00643C" height="40" width="100%" x="0" y="432"></rect><rect fill="#101010" height="88" width="100%" x="0" y="472"></rect><rect fill="#00643C" height="48" width="100%" x="0" y="560"></rect><rect fill="#101010" height="24" width="100%" x="0" y="608"></rect><rect fill="#00643C" height="48" width="100%" x="0" y="632"></rect><rect fill="#101010" height="88" width="100%" x="0" y="680"></rect><rect fill="#00643C" height="40" width="100%" x="0" y="768"></rect><rect fill="#FCCC00" height="24" width="100%" x="0" y="808"></rect><rect fill="#101010" height="80" width="100%" x="0" y="832"></rect><rect fill="#00643C" height="248" width="100%" x="0" y="912"></rect><rect fill="#101010" height="16" width="100%" x="0" y="1160"></rect><rect fill="#00643C" height="32" width="100%" x="0" y="1176"></rect></g><g id="vertStripes" mask="url(#grating)"><rect fill="#C80000" height="100%" width="32" x="0" y="0"></rect><rect fill="#00643C" height="100%" width="32" x="32" y="0"></rect><rect fill="#101010" height="100%" width="16" x="64" y="0"></rect><rect fill="#00643C" height="100%" width="248" x="80" y="0"></rect><rect fill="#101010" height="100%" width="80" x="328" y="0"></rect><rect fill="#FCCC00" height="100%" width="24" x="408" y="0"></rect><rect fill="#00643C" height="100%" width="40" x="432" y="0"></rect><rect fill="#101010" height="100%" width="88" x="472" y="0"></rect><rect fill="#00643C" height="100%" width="48" x="560" y="0"></rect><rect fill="#101010" height="100%" width="24" x="608" y="0"></rect><rect fill="#00643C" height="100%" width="48" x="632" y="0"></rect><rect fill="#101010" height="100%" width="88" x="680" y="0"></rect><rect fill="#00643C" height="100%" width="40" x="768" y="0"></rect><rect fill="#FCCC00" height="100%" width="24" x="808" y="0"></rect><rect fill="#101010" height="100%" width="80" x="832" y="0"></rect><rect fill="#00643C" height="100%" width="248" x="912" y="0"></rect><rect fill="#101010" height="100%" width="16" x="1160" y="0"></rect><rect fill="#00643C" height="100%" width="32" x="1176" y="0"></rect></g></svg>