<svg viewBox="0 0 1008 1008" width="1008" height="1008" x="0" y="0" xmlns="http://www.w3.org/2000/svg"><defs><pattern id="pattern" x="0" y="0" width="8" height="8" patternUnits="userSpaceOnUse"><polygon points="0,4 0,8 8,0 4,0" fill="#ffffff"></polygon><polygon points="4,8 8,8 8,4" fill="#ffffff"></polygon></pattern><mask id="grating" x="0" y="0" width="1" height="1"><rect x="0" y="0" width="100%" height="100%" fill="url(#pattern)"></rect></mask></defs><g id="horizStripes"><rect fill="#2C4084" height="16" width="100%" x="0" y="0"></rect><rect fill="#C87814" height="24" width="100%" x="0" y="16"></rect><rect fill="#2C4084" height="16" width="100%" x="0" y="40"></rect><rect fill="#C87814" height="48" width="100%" x="0" y="56"></rect><rect fill="#2C4084" height="192" width="100%" x="0" y="104"></rect><rect fill="#005020" height="48" width="100%" x="0" y="296"></rect><rect fill="#E0E0E0" height="16" width="100%" x="0" y="344"></rect><rect fill="#005020" height="304" width="100%" x="0" y="360"></rect><rect fill="#E0E0E0" height="16" width="100%" x="0" y="664"></rect><rect fill="#005020" height="48" width="100%" x="0" y="680"></rect><rect fill="#2C4084" height="192" width="100%" x="0" y="728"></rect><rect fill="#C87814" height="48" width="100%" x="0" y="920"></rect><rect fill="#2C4084" height="16" width="100%" x="0" y="968"></rect><rect fill="#C87814" height="24" width="100%" x="0" y="984"></rect></g><g id="vertStripes" mask="url(#grating)"><rect fill="#2C4084" height="100%" width="16" x="0" y="0"></rect><rect fill="#C87814" height="100%" width="24" x="16" y="0"></rect><rect fill="#2C4084" height="100%" width="16" x="40" y="0"></rect><rect fill="#C87814" height="100%" width="48" x="56" y="0"></rect><rect fill="#2C4084" height="100%" width="192" x="104" y="0"></rect><rect fill="#005020" height="100%" width="48" x="296" y="0"></rect><rect fill="#E0E0E0" height="100%" width="16" x="344" y="0"></rect><rect fill="#005020" height="100%" width="304" x="360" y="0"></rect><rect fill="#E0E0E0" height="100%" width="16" x="664" y="0"></rect><rect fill="#005020" height="100%" width="48" x="680" y="0"></rect><rect fill="#2C4084" height="100%" width="192" x="728" y="0"></rect><rect fill="#C87814" height="100%" width="48" x="920" y="0"></rect><rect fill="#2C4084" height="100%" width="16" x="968" y="0"></rect><rect fill="#C87814" height="100%" width="24" x="984" y="0"></rect></g></svg>