<svg viewBox="0 0 576 576" width="576" height="576" x="0" y="0" xmlns="http://www.w3.org/2000/svg"><defs><pattern id="pattern" x="0" y="0" width="8" height="8" patternUnits="userSpaceOnUse"><polygon points="0,4 0,8 8,0 4,0" fill="#ffffff"></polygon><polygon points="4,8 8,8 8,4" fill="#ffffff"></polygon></pattern><mask id="grating" x="0" y="0" width="1" height="1"><rect x="0" y="0" width="100%" height="100%" fill="url(#pattern)"></rect></mask></defs><g id="horizStripes"><rect fill="#202060" height="64" width="100%" x="0" y="0"></rect><rect fill="#006818" height="16" width="100%" x="0" y="64"></rect><rect fill="#202060" height="16" width="100%" x="0" y="80"></rect><rect fill="#006818" height="96" width="100%" x="0" y="96"></rect><rect fill="#101010" height="16" width="100%" x="0" y="192"></rect><rect fill="#006818" height="96" width="100%" x="0" y="208"></rect><rect fill="#202060" height="16" width="100%" x="0" y="304"></rect><rect fill="#006818" height="16" width="100%" x="0" y="320"></rect><rect fill="#202060" height="64" width="100%" x="0" y="336"></rect><rect fill="#E0E0E0" height="16" width="100%" x="0" y="400"></rect><rect fill="#101010" height="64" width="100%" x="0" y="416"></rect><rect fill="#006818" height="16" width="100%" x="0" y="480"></rect><rect fill="#101010" height="64" width="100%" x="0" y="496"></rect><rect fill="#E8C000" height="16" width="100%" x="0" y="560"></rect></g><g id="vertStripes" mask="url(#grating)"><rect fill="#202060" height="100%" width="64" x="0" y="0"></rect><rect fill="#006818" height="100%" width="16" x="64" y="0"></rect><rect fill="#202060" height="100%" width="16" x="80" y="0"></rect><rect fill="#006818" height="100%" width="96" x="96" y="0"></rect><rect fill="#101010" height="100%" width="16" x="192" y="0"></rect><rect fill="#006818" height="100%" width="96" x="208" y="0"></rect><rect fill="#202060" height="100%" width="16" x="304" y="0"></rect><rect fill="#006818" height="100%" width="16" x="320" y="0"></rect><rect fill="#202060" height="100%" width="64" x="336" y="0"></rect><rect fill="#E0E0E0" height="100%" width="16" x="400" y="0"></rect><rect fill="#101010" height="100%" width="64" x="416" y="0"></rect><rect fill="#006818" height="100%" width="16" x="480" y="0"></rect><rect fill="#101010" height="100%" width="64" x="496" y="0"></rect><rect fill="#E8C000" height="100%" width="16" x="560" y="0"></rect></g></svg>