<svg viewBox="0 0 904 904" width="904" height="904" x="0" y="0" xmlns="http://www.w3.org/2000/svg"><defs><pattern id="pattern" x="0" y="0" width="8" height="8" patternUnits="userSpaceOnUse"><polygon points="0,4 0,8 8,0 4,0" fill="#ffffff"></polygon><polygon points="4,8 8,8 8,4" fill="#ffffff"></polygon></pattern><mask id="grating" x="0" y="0" width="1" height="1"><rect x="0" y="0" width="100%" height="100%" fill="url(#pattern)"></rect></mask></defs><g id="horizStripes"><rect fill="#E8C000" height="24" width="100%" x="0" y="0"></rect><rect fill="#101010" height="80" width="100%" x="0" y="24"></rect><rect fill="#1474B4" height="80" width="100%" x="0" y="104"></rect><rect fill="#101010" height="120" width="100%" x="0" y="184"></rect><rect fill="#408060" height="320" width="100%" x="0" y="304"></rect><rect fill="#101010" height="120" width="100%" x="0" y="624"></rect><rect fill="#1474B4" height="80" width="100%" x="0" y="744"></rect><rect fill="#101010" height="80" width="100%" x="0" y="824"></rect></g><g id="vertStripes" mask="url(#grating)"><rect fill="#E8C000" height="100%" width="24" x="0" y="0"></rect><rect fill="#101010" height="100%" width="80" x="24" y="0"></rect><rect fill="#1474B4" height="100%" width="80" x="104" y="0"></rect><rect fill="#101010" height="100%" width="120" x="184" y="0"></rect><rect fill="#408060" height="100%" width="320" x="304" y="0"></rect><rect fill="#101010" height="100%" width="120" x="624" y="0"></rect><rect fill="#1474B4" height="100%" width="80" x="744" y="0"></rect><rect fill="#101010" height="100%" width="80" x="824" y="0"></rect></g></svg>