<svg viewBox="0 0 1072 1072" width="1072" height="1072" x="0" y="0" xmlns="http://www.w3.org/2000/svg"><defs><pattern id="pattern" x="0" y="0" width="8" height="8" patternUnits="userSpaceOnUse"><polygon points="0,4 0,8 8,0 4,0" fill="#ffffff"></polygon><polygon points="4,8 8,8 8,4" fill="#ffffff"></polygon></pattern><mask id="grating" x="0" y="0" width="1" height="1"><rect x="0" y="0" width="100%" height="100%" fill="url(#pattern)"></rect></mask></defs><g id="horizStripes"><rect fill="#A08858" height="16" width="100%" x="0" y="0"></rect><rect fill="#8C0000" height="32" width="100%" x="0" y="16"></rect><rect fill="#000000" height="16" width="100%" x="0" y="48"></rect><rect fill="#8C0000" height="48" width="100%" x="0" y="64"></rect><rect fill="#604000" height="64" width="100%" x="0" y="112"></rect><rect fill="#000000" height="16" width="100%" x="0" y="176"></rect><rect fill="#FCFCFC" height="16" width="100%" x="0" y="192"></rect><rect fill="#000000" height="16" width="100%" x="0" y="208"></rect><rect fill="#2C2C80" height="16" width="100%" x="0" y="224"></rect><rect fill="#000000" height="112" width="100%" x="0" y="240"></rect><rect fill="#A08858" height="384" width="100%" x="0" y="352"></rect><rect fill="#000000" height="112" width="100%" x="0" y="736"></rect><rect fill="#2C2C80" height="16" width="100%" x="0" y="848"></rect><rect fill="#000000" height="16" width="100%" x="0" y="864"></rect><rect fill="#FCFCFC" height="16" width="100%" x="0" y="880"></rect><rect fill="#000000" height="16" width="100%" x="0" y="896"></rect><rect fill="#604000" height="64" width="100%" x="0" y="912"></rect><rect fill="#8C0000" height="48" width="100%" x="0" y="976"></rect><rect fill="#000000" height="16" width="100%" x="0" y="1024"></rect><rect fill="#8C0000" height="32" width="100%" x="0" y="1040"></rect></g><g id="vertStripes" mask="url(#grating)"><rect fill="#A08858" height="100%" width="16" x="0" y="0"></rect><rect fill="#8C0000" height="100%" width="32" x="16" y="0"></rect><rect fill="#000000" height="100%" width="16" x="48" y="0"></rect><rect fill="#8C0000" height="100%" width="48" x="64" y="0"></rect><rect fill="#604000" height="100%" width="64" x="112" y="0"></rect><rect fill="#000000" height="100%" width="16" x="176" y="0"></rect><rect fill="#FCFCFC" height="100%" width="16" x="192" y="0"></rect><rect fill="#000000" height="100%" width="16" x="208" y="0"></rect><rect fill="#2C2C80" height="100%" width="16" x="224" y="0"></rect><rect fill="#000000" height="100%" width="112" x="240" y="0"></rect><rect fill="#A08858" height="100%" width="384" x="352" y="0"></rect><rect fill="#000000" height="100%" width="112" x="736" y="0"></rect><rect fill="#2C2C80" height="100%" width="16" x="848" y="0"></rect><rect fill="#000000" height="100%" width="16" x="864" y="0"></rect><rect fill="#FCFCFC" height="100%" width="16" x="880" y="0"></rect><rect fill="#000000" height="100%" width="16" x="896" y="0"></rect><rect fill="#604000" height="100%" width="64" x="912" y="0"></rect><rect fill="#8C0000" height="100%" width="48" x="976" y="0"></rect><rect fill="#000000" height="100%" width="16" x="1024" y="0"></rect><rect fill="#8C0000" height="100%" width="32" x="1040" y="0"></rect></g></svg>